<?xml version="1.0" encoding="UTF-8"?>
<svg width="46px" height="46px" viewBox="0 0 46 46" version="1.1" xmlns="http://www.w3.org/2000/svg" xmlns:xlink="http://www.w3.org/1999/xlink">
    <!-- Generator: Sketch 51.2 (57519) - http://www.bohemiancoding.com/sketch -->
    <title>g16 Clipped</title>
    <desc>Created with Sketch.</desc>
    <defs>
        <polygon id="path-1" points="0 47.5 47.5 47.5 47.5 0 0 0"></polygon>
    </defs>
    <g id="On-boarding" stroke="none" stroke-width="1" fill="none" fill-rule="evenodd">
        <g id="On-Boarding---Whats-new-(3)" transform="translate(-508.000000, -530.000000)">
            <g id="Group-4" transform="translate(121.000000, 262.000000)">
                <g id="g16-Clipped" transform="translate(410.500000, 290.020070) scale(-1, 1) rotate(-180.000000) translate(-410.500000, -290.020070) translate(386.500000, 266.020070)">
                    <mask id="mask-2" fill="white">
                        <use xlink:href="#path-1"></use>
                    </mask>
                    <g id="path20"></g>
                    <g id="g16" mask="url(#mask-2)">
                        <g transform="translate(1.250000, 0.250000)">
                            <g id="g22">
                                <path d="M45,22.9139835 C45,10.4877335 34.92625,0.413983479 22.5,0.413983479 C10.07375,0.413983479 0,10.4877335 0,22.9139835 C0,35.3402335 10.07375,45.4139835 22.5,45.4139835 C34.92625,45.4139835 45,35.3402335 45,22.9139835" id="path24" fill="#FFCC4D" fill-rule="nonzero"></path>
                            </g>
                            <g id="g26" transform="translate(15.606750, 8.651375)">
                                <path d="M13.75,1.25 C13.735,1.305 12.3175,6.72375 6.89375,6.72375 C1.4675,6.72375 0.05125,1.305 0.0375,1.25 C-0.02875,0.98375 0.09125,0.71125 0.32625,0.57 C0.56125,0.43 0.8675,0.4625 1.07125,0.645 C1.08375,0.65375 2.33875,1.72375 6.89375,1.72375 C11.38,1.72375 12.665,0.68625 12.71375,0.645 C12.8325,0.5325 12.9875,0.47375 13.14375,0.47375 C13.24875,0.47375 13.355,0.5 13.45125,0.55375 C13.69625,0.69375 13.81875,0.9775 13.75,1.25" id="path28" fill="#2C2C2C" fill-rule="nonzero"></path>
                            </g>
                            <g id="g30" transform="translate(24.725375, 20.199250)">
                                <path d="M7.5,6.25 C7.07375,6.36625 6.635,6.425 6.19625,6.425 C3.265,6.425 1.13,3.85 1.04,3.74125 C0.86125,3.52125 0.855,3.20875 1.01875,2.98 C1.18625,2.75 1.48625,2.66375 1.75125,2.7625 C1.7575,2.765 2.4675,3.03125 3.7075,3.03125 C4.6,3.03125 5.54375,2.89625 6.5125,2.63125 C9.44,1.835 10.65375,0.35875 10.68,0.3275 C10.8025,0.1725 10.98375,0.0875 11.1725,0.0875 C11.255,0.0875 11.33875,0.105 11.41875,0.13875 C11.68,0.25125 11.8325,0.52625 11.79,0.8075 C11.76125,0.99 11.0675,5.2775 7.5,6.25" id="path32" fill="#2C2C2C" fill-rule="nonzero"></path>
                            </g>
                            <g id="g34" transform="translate(7.782625, 20.359750)">
                                <path d="M6.25,6.25 C5.85375,6.25 5.455,6.20125 5.06625,6.105 C1.47875,5.22125 0.675,0.95375 0.6425,0.7725 C0.5925,0.49375 0.7375,0.2175 0.99375,0.0975 C1.07875,0.0575 1.16875,0.03875 1.2575,0.03875 C1.43875,0.03875 1.61625,0.1175 1.73875,0.2625 C1.75125,0.2775 3.00125,1.735 5.96375,2.46375 C6.85625,2.68375 7.72875,2.795 8.55375,2.795 C9.93375,2.795 10.71875,2.47875 10.7225,2.4775 C10.80625,2.4425 10.88625,2.4275 10.98125,2.4275 C11.32125,2.4125 11.6175,2.70375 11.6175,3.0525 C11.6175,3.25875 11.5175,3.44125 11.36375,3.555 C10.905,4.09875 8.9225,6.25 6.25,6.25" id="path36" fill="#2C2C2C" fill-rule="nonzero"></path>
                            </g>
                        </g>
                    </g>
                </g>
            </g>
        </g>
    </g>
</svg>