<?xml version="1.0" encoding="UTF-8"?>
<svg width="19px" height="19px" viewBox="0 0 19 19" version="1.1" xmlns="http://www.w3.org/2000/svg" xmlns:xlink="http://www.w3.org/1999/xlink">
    <!-- Generator: Sketch 49.3 (51167) - http://www.bohemiancoding.com/sketch -->
    <title>Fuelling</title>
    <desc>Created with Sketch.</desc>
    <defs></defs>
    <g id="Scale" stroke="none" stroke-width="1" fill="none" fill-rule="evenodd">
        <g id="US-565" transform="translate(-124.000000, -850.000000)" fill="#2B2B2B">
            <path d="M142.055556,854 C142.638433,854 143,854.6949 143,855.277778 L143,865 C143,866.457511 141.957511,867.5 140.5,867.5 C139.042489,867.5 138,866.457511 138,865 L138,861.611111 C138,860.5 138,860 137,860 L137,867 C137,868.165967 136.165967,869 135,869 L126.111111,869 C124.945144,869 124,868.165965 124,867 L124,852.055556 C124,850.889589 124.834033,850 126,850 L135,850 C136.165967,850 137,850.889589 137,852.055556 L137,858 C139.5,858 140,859.862267 140,861.611111 L140,865 C140,865.291544 140.208456,865.5 140.5,865.5 C140.791544,865.5 141,865.291544 141,865 L141,856 C139.834033,856 139,855.165967 139,854 L139,851 C139,850.417122 139.417122,850 140,850 C140.582878,850 141,850.417122 141,851 L141,854 L142.055556,854 Z M134.999759,856.799803 L134.999759,853.199951 C134.999759,852.537338 134.495998,852 133.874789,852 L127.12497,852 C126.503762,852 126,852.537338 126,853.199951 L126,856.799803 L126,856.800283 C126.0126,857.476095 126.536386,858.013193 127.169969,857.999753 L133.919788,857.999753 L133.920238,857.999753 C134.529072,857.986314 135.012359,857.449216 134.999759,856.799803 Z" id="Fuelling"></path>
        </g>
    </g>
</svg>