<?xml version="1.0" encoding="UTF-8"?>
<svg width="46px" height="46px" viewBox="0 0 46 46" version="1.1" xmlns="http://www.w3.org/2000/svg" xmlns:xlink="http://www.w3.org/1999/xlink">
    <!-- Generator: Sketch 51.2 (57519) - http://www.bohemiancoding.com/sketch -->
    <title>g16 Clipped</title>
    <desc>Created with Sketch.</desc>
    <defs>
        <polygon id="path-1" points="0 52.1124959 52.1124959 52.1124959 52.1124959 0 0 0"></polygon>
    </defs>
    <g id="On-boarding" stroke="none" stroke-width="1" fill="none" fill-rule="evenodd">
        <g id="On-Boarding---Whats-new-(3)" transform="translate(-578.000000, -530.000000)">
            <g id="Group-4" transform="translate(121.000000, 262.000000)">
                <g id="g16-Clipped" transform="translate(479.943752, 291.556248) scale(-1, 1) rotate(-180.000000) translate(-479.943752, -291.556248) translate(453.443752, 265.056248)">
                    <mask id="mask-2" fill="white">
                        <use xlink:href="#path-1"></use>
                    </mask>
                    <g id="path20"></g>
                    <g id="g16" mask="url(#mask-2)">
                        <g transform="translate(3.742763, 4.114144)">
                            <g id="g22" transform="translate(0.000000, 0.000000)">
                                <path d="M45.5197385,23.0860165 C45.5197385,10.6593989 35.4463561,0.586016521 23.0197385,0.586016521 C10.5944444,0.586016521 0.519738478,10.6593989 0.519738478,23.0860165 C0.519738478,35.5113106 10.5944444,45.5860165 23.0197385,45.5860165 C35.4463561,45.5860165 45.5197385,35.5113106 45.5197385,23.0860165" id="path24" fill="#FFCC4D" fill-rule="nonzero"></path>
                            </g>
                            <g id="g26" transform="translate(9.971052, 19.885031)">
                                <path d="M6.85690735,5.48552588 C6.85690735,2.83327412 5.32233149,0.685690735 3.42845368,0.685690735 C1.53457587,0.685690735 0,2.83327412 0,5.48552588 C0,8.13640626 1.53457587,10.285361 3.42845368,10.285361 C5.32233149,10.285361 6.85690735,8.13640626 6.85690735,5.48552588" id="path28" fill="#2C2C2C" fill-rule="nonzero"></path>
                            </g>
                            <g id="g30" transform="translate(27.799011, 19.885031)">
                                <path d="M6.85690735,5.48552588 C6.85690735,2.83327412 5.32233149,0.685690735 3.42845368,0.685690735 C1.53457587,0.685690735 0,2.83327412 0,5.48552588 C0,8.13640626 1.53457587,10.285361 3.42845368,10.285361 C5.32233149,10.285361 6.85690735,8.13640626 6.85690735,5.48552588" id="path32" fill="#2C2C2C" fill-rule="nonzero"></path>
                            </g>
                            <g id="g34" transform="translate(11.342433, 12.342433)">
                                <path d="M20.5707221,0 L1.37138147,0 C0.614378899,0 0,0.613007517 0,1.37138147 C0,2.12975542 0.614378899,2.74276294 1.37138147,2.74276294 L20.5707221,2.74276294 C21.329096,2.74276294 21.9421035,2.12975542 21.9421035,1.37138147 C21.9421035,0.613007517 21.329096,0 20.5707221,0" id="path36" fill="#2C2C2C" fill-rule="nonzero"></path>
                            </g>
                        </g>
                    </g>
                </g>
            </g>
        </g>
    </g>
</svg>